<svg version="1.1" id="mark" xmlns="http://www.w3.org/2000/svg" xmlns:xlink="http://www.w3.org/1999/xlink" x="0px" y="0px"
	 viewBox="0 0 800 600" enable-background="new 0 0 800 600" xml:space="preserve">

<style>
	svg * {
		transition: opacity 1s ease-out;
	}

	#large {
		opacity: 1;
	}
	#medium, #small {
		opacity: 0;
	}

	@media all and (max-width: 480px) {
		#medium {
			opacity: 1;
		}
		#large, #small {
			opacity: 0;
		}
	}

	@media all and (max-width: 320px) {
		#small {
			opacity: 1;
		}
		#large, #medium {
			opacity: 0;
		}
	}
</style>

<g id="large">
	<circle cx="392" cy="299" r="18.8"/>
	<circle cx="352.5" cy="321.6" r="14.8"/>
	<circle cx="431.5" cy="321.6" r="14.8"/>
	<circle cx="392" cy="253.3" r="14.8"/>
	<path d="M363.5,266.2c-3.1-3.4-4.9-7.8-4.9-12.8c0-4.9,1.9-9.4,4.9-12.7l0,0c2.4-2.7,3.9-6.2,3.9-10.1c0-8.3-6.6-15-14.8-15c-8.2,0-14.8,6.7-14.8,15c0,3.9,1.5,7.4,3.9,10.1l0,0c3,3.4,4.9,7.8,4.9,12.7c0,4.9-1.9,9.4-4.9,12.8l0,0c-2.4,2.7-3.9,6.2-3.9,10c0,8.3,6.6,15,14.8,15c8.2,0,14.8-6.7,14.8-15C367.3,272.4,365.8,268.9,363.5,266.2L363.5,266.2z"/>
	<path d="M434.2,290.5c4.5-0.9,9.3-0.3,13.5,2.2c4.2,2.5,7.2,6.3,8.5,10.7l0,0c1.1,3.4,3.4,6.5,6.7,8.4c7.1,4.2,16.3,1.8,20.4-5.3c4.1-7.1,1.7-16.2-5.5-20.3c-3.3-2-7.1-2.5-10.6-1.7l0,0c-4.4,0.9-9.2,0.3-13.5-2.2c-4.3-2.5-7.2-6.4-8.6-10.7l0,0c-1.1-3.4-3.4-6.4-6.7-8.4c-7.1-4.2-16.3-1.8-20.4,5.3c-4.1,7.1-1.7,16.2,5.5,20.3C427,290.7,430.7,291.2,434.2,290.5L434.2,290.5z"/>
	<path d="M366.8,372.1c1.4-4.3,4.3-8.2,8.6-10.7c4.3-2.5,9.1-3.1,13.5-2.1l0,0c3.5,0.7,7.3,0.3,10.6-1.7c7.2-4.1,9.7-13.2,5.6-20.3c-4.1-7.1-13.2-9.5-20.4-5.4c-3.4,1.9-5.7,5-6.8,8.4l0,0c-1.4,4.3-4.3,8.2-8.6,10.6c-4.3,2.5-9.1,3.1-13.5,2.1l0,0c-3.5-0.7-7.3-0.3-10.6,1.7c-7.2,4.1-9.7,13.2-5.6,20.3c4.1,7.1,13.2,9.5,20.4,5.4C363.3,378.4,365.7,375.4,366.8,372.1L366.8,372.1z"/>
</g>
<g id="medium">
	<path d="M377.4,288.4c-3.1-3.4-4.9-7.8-4.9-12.8c0-4.9,1.9-9.4,4.9-12.7l0,0c2.4-2.7,3.9-6.2,3.9-10.1c0-8.3-6.6-15-14.8-15c-8.2,0-14.8,6.7-14.8,15c0,3.9,1.5,7.4,3.9,10.1l0,0c3,3.4,4.9,7.8,4.9,12.7c0,4.9-1.9,9.4-4.9,12.8l0,0c-2.4,2.7-3.9,6.2-3.9,10c0,8.3,6.6,15,14.8,15c8.2,0,14.8-6.7,14.8-15C381.3,294.6,379.8,291.1,377.4,288.4L377.4,288.4z"/>
	<path d="M408.8,291.1c4.5-0.9,9.3-0.3,13.5,2.2c4.2,2.5,7.2,6.3,8.5,10.7l0,0c1.1,3.4,3.4,6.5,6.7,8.4c7.1,4.2,16.3,1.8,20.4-5.3c4.1-7.1,1.7-16.2-5.5-20.3c-3.3-2-7.1-2.5-10.6-1.7l0,0c-4.4,0.9-9.2,0.3-13.5-2.2c-4.3-2.5-7.2-6.4-8.6-10.7l0,0c-1.1-3.4-3.4-6.4-6.7-8.4c-7.1-4.2-16.3-1.8-20.4,5.3c-4.1,7.1-1.7,16.2,5.5,20.3C401.5,291.3,405.3,291.8,408.8,291.1L408.8,291.1z"/>
	<path d="M380.8,349.9c1.4-4.3,4.3-8.2,8.6-10.7c4.3-2.5,9.1-3.1,13.5-2.1l0,0c3.5,0.7,7.3,0.3,10.6-1.7c7.2-4.1,9.7-13.2,5.6-20.3c-4.1-7.1-13.2-9.5-20.4-5.4c-3.4,1.9-5.7,5-6.8,8.4l0,0c-1.4,4.3-4.3,8.2-8.6,10.6c-4.3,2.5-9.1,3.1-13.5,2.1l0,0c-3.5-0.7-7.3-0.3-10.6,1.7c-7.2,4.1-9.7,13.2-5.6,20.3c4.1,7.1,13.2,9.5,20.4,5.4C377.3,356.2,379.6,353.2,380.8,349.9L380.8,349.9z"/>
</g>
<g id="small">
	<circle cx="381.3" cy="322.8" r="14.8"/>
	<path d="M384,291.8c4.5-0.9,9.3-0.3,13.5,2.2c4.2,2.5,7.2,6.3,8.5,10.7l0,0c1.1,3.4,3.4,6.5,6.7,8.4c7.1,4.2,16.3,1.8,20.4-5.3c4.1-7.1,1.7-16.2-5.5-20.3c-3.3-2-7.1-2.5-10.6-1.7l0,0c-4.4,0.9-9.2,0.3-13.5-2.2c-4.3-2.5-7.2-6.4-8.6-10.7l0,0c-1.1-3.4-3.4-6.4-6.7-8.4c-7.1-4.2-16.3-1.8-20.4,5.3c-4.1,7.1-1.7,16.2,5.5,20.3C376.7,291.9,380.5,292.5,384,291.8L384,291.8z"/>
</g>
</svg>
